<svg xmlns="http://www.w3.org/2000/svg" xmlns:xlink="http://www.w3.org/1999/xlink" viewBox="0,0,256,256" width="50px" height="50px" fill-rule="nonzero"><g fill="#3576df" fill-rule="nonzero" stroke="none" stroke-width="1" stroke-linecap="butt" stroke-linejoin="miter" stroke-miterlimit="10" stroke-dasharray="" stroke-dashoffset="0" font-family="none" font-weight="none" font-size="none" text-anchor="none" style="mix-blend-mode: normal"><g transform="scale(5.12,5.12)"><path d="M18,5c-2.761,0 -5,2.239 -5,5v1h19.5c3.59,0 6.5,2.91 6.5,6.5v10c0,1.933 -1.567,3.5 -3.5,3.5h-13c-1.933,0 -3.5,-1.567 -3.5,-3.5v-6.5h-4c-1.105,0 -2,0.895 -2,2v9c0,2.761 2.239,5 5,5h22c2.761,0 5,-2.239 5,-5v-22c0,-2.761 -2.239,-5 -5,-5zM10,13c-2.761,0 -5,2.239 -5,5v22c0,2.761 2.239,5 5,5h22c2.761,0 5,-2.239 5,-5v-1h-19.5c-3.59,0 -6.5,-2.91 -6.5,-6.5v-10c0,-1.933 1.567,-3.5 3.5,-3.5h13c1.933,0 3.5,1.567 3.5,3.5v6.5h4c1.105,0 2,-0.895 2,-2v-9c0,-2.761 -2.239,-5 -5,-5z"></path></g></g></svg>